<?xml version="1.0" encoding="utf-8"?>
<!-- Generator: Adobe Illustrator 16.0.0, SVG Export Plug-In . SVG Version: 6.00 Build 0)  -->
<!DOCTYPE svg PUBLIC "-//W3C//DTD SVG 1.1//EN" "http://www.w3.org/Graphics/SVG/1.1/DTD/svg11.dtd">
<svg version="1.1" id="Layer_1" xmlns="http://www.w3.org/2000/svg" xmlns:xlink="http://www.w3.org/1999/xlink" x="0px" y="0px"
	 width="128px" height="128px" viewBox="0 0 128 128" enable-background="new 0 0 128 128" xml:space="preserve">
<g>
	<g>
		<defs>
			<rect id="SVGID_1_" x="20.92" y="6.952" width="86.08" height="115.056"/>
		</defs>
		<clipPath id="SVGID_2_">
			<use xlink:href="#SVGID_1_"  overflow="visible"/>
		</clipPath>
		<path clip-path="url(#SVGID_2_)" fill="#FFFFFF" d="M72.273,7.517c-4.206,0-13.42,10.288-18.316,13.114
			c-0.45,0.26-0.971,0.511-1.506,0.731h-6.277c-1.21,0-2.278,0.424-2.924,1.075l-5.331-5.332c-0.993-0.992-2.901-0.667-4.3,0.731
			L22.225,29.23c-1.398,1.398-1.721,3.307-0.73,4.3c1.963,1.966,3.979,3.957,5.891,5.932c-3.768,2.176-0.99-0.414-0.99,70.946
			c0,6.037,5.535,10.921,12.383,10.921h55.854c6.849,0,12.339-4.884,12.339-10.921V43.721c0-0.557-0.035-1.101-0.129-1.633
			c0.151-0.372,0.215-0.761,0.215-1.161V20.372c0-8.503-8.572-12.855-11.994-12.855H72.273z M79.496,16.762h12.729
			c1.762,0,3.183,1.105,3.183,2.493c0,1.388-1.421,2.494-3.183,2.494H79.496c-1.762,0-3.18-1.106-3.18-2.494
			C76.316,17.867,77.734,16.762,79.496,16.762L79.496,16.762z M44.412,51.89c0.911-0.085,1.956,0.323,2.75,1.117l19.179,19.179
			l19.218-19.179c1.273-1.271,3.133-1.467,4.173-0.428c1.036,1.037,0.844,2.896-0.431,4.17L70.125,75.926l19.176,19.221
			c1.274,1.273,1.467,3.132,0.431,4.17c-1.037,1.037-2.899,0.843-4.173-0.432L66.341,79.709L47.162,98.885
			c-1.271,1.274-3.134,1.469-4.17,0.432c-1.037-1.038-0.886-2.896,0.389-4.17l19.217-19.221L43.381,56.75
			c-1.274-1.274-1.426-3.133-0.389-4.17C43.381,52.188,43.866,51.942,44.412,51.89L44.412,51.89z M44.412,51.89"/>
	</g>
</g>
</svg>
