<?xml version="1.0" encoding="iso-8859-1"?>
<!-- Generator: Adobe Illustrator 19.0.0, SVG Export Plug-In . SVG Version: 6.00 Build 0)  -->
<svg xmlns="http://www.w3.org/2000/svg" xmlns:xlink="http://www.w3.org/1999/xlink" version="1.1" id="Layer_1" x="0px" y="0px" viewBox="0 0 511.999 511.999" style="enable-background:new 0 0 511.999 511.999;" xml:space="preserve" width="512px" height="512px">
<g>
	<g>
		<path d="M405.646,142.874c-24.012-31.71-58.124-55.39-96.052-66.68c-4.246-1.261-8.707,1.154-9.971,5.397    c-1.263,4.244,1.153,8.707,5.397,9.971C377.167,113.036,427.557,180.656,427.557,256c0,12.381-1.338,24.775-3.977,36.835    c-0.945,4.325,1.794,8.598,6.119,9.545c4.268,0.934,8.611-1.851,9.545-6.118c2.884-13.184,4.346-26.73,4.346-40.262    C443.59,214.774,430.47,175.654,405.646,142.874z" fill="#FFFFFF"/>
	</g>
</g>
<g>
	<g>
		<path d="M441.883,105.931c-33.684-41.668-80.848-71.108-132.802-82.899c-4.316-0.981-8.613,1.725-9.593,6.044    c-0.979,4.318,1.726,8.612,6.044,9.592C407.587,61.827,478.864,151.197,478.864,256c0,21.677-3.12,43.134-9.275,63.774    c-1.2,4.025,1.016,8.407,4.966,9.832c4.277,1.542,9.103-0.901,10.399-5.25c6.597-22.128,9.943-45.127,9.943-68.356    C494.897,201.515,476.071,148.22,441.883,105.931z" fill="#FFFFFF"/>
	</g>
</g>
<g>
	<g>
		<path d="M310.517,131.07c-4.057-1.773-8.784,0.078-10.555,4.137c-1.773,4.056,0.078,8.783,4.136,10.555    C347.929,164.915,376.25,208.186,376.25,256c0,3.115-0.122,6.281-0.365,9.412c-0.341,4.413,2.961,8.269,7.375,8.61    c4.356,0.335,8.274-3.018,8.611-7.375c0.274-3.539,0.413-7.121,0.413-10.646C392.284,201.813,360.19,152.775,310.517,131.07z" fill="#FFFFFF"/>
	</g>
</g>
<g>
	<g>
		<path d="M212.376,81.59c-1.263-4.242-5.723-6.66-9.971-5.397c-37.928,11.29-72.04,34.97-96.052,66.681    C81.529,175.654,68.409,214.773,68.409,256c0,13.532,1.462,27.078,4.346,40.262c0.948,4.33,5.386,7.105,9.695,6.082    c4.194-0.995,6.889-5.303,5.97-9.509c-2.639-12.06-3.977-24.454-3.977-36.835c0-75.345,50.39-142.964,122.538-164.44    C211.222,90.297,213.639,85.833,212.376,81.59z" fill="#FFFFFF"/>
	</g>
</g>
<g>
	<g>
		<path d="M212.51,29.075c-0.98-4.318-5.277-7.026-9.593-6.044c-51.955,11.79-99.118,41.232-132.802,82.899    C35.928,148.22,17.102,201.515,17.102,256c0,23.228,3.346,46.226,9.943,68.355c1.248,4.187,5.783,6.64,9.973,5.393    c4.243-1.266,6.658-5.73,5.393-9.974c-6.155-20.64-9.275-42.097-9.275-63.773c0-104.803,71.277-194.174,173.332-217.333    C210.784,37.687,213.49,33.393,212.51,29.075z" fill="#FFFFFF"/>
	</g>
</g>
<g>
	<g>
		<path d="M212.038,135.206c-1.773-4.057-6.501-5.911-10.555-4.137c-49.673,21.705-81.767,70.744-81.767,124.93    c0,3.525,0.139,7.107,0.413,10.646c0.337,4.356,4.255,7.712,8.611,7.374c4.356-0.338,7.712-4.254,7.374-8.611    c-0.243-3.129-0.365-6.295-0.365-9.411c0-47.813,28.321-91.084,72.154-110.237C211.96,143.989,213.811,139.263,212.038,135.206z" fill="#FFFFFF"/>
	</g>
</g>
<g>
	<g>
		<path d="M467.773,358.459c-7.49-7.814-18.946-17.584-34.049-29.04c-29.842-22.633-71.897-50.287-118.595-77.998    c-1.411-18.378-11.219-34.435-25.599-44.325c-0.648-54.216-3.562-104.388-8.23-141.545c-2.37-18.858-5.105-33.708-8.132-44.132    C270.272,11.446,265.704,0,255.999,0c-9.695,0-14.26,11.419-17.154,21.367c-3.023,10.396-5.757,25.202-8.126,44.01    c-4.681,37.164-7.603,87.416-8.252,141.719c-14.38,9.891-24.188,25.947-25.599,44.326    c-46.624,27.666-88.612,55.272-118.455,77.892c-15.147,11.481-26.638,21.275-34.153,29.109    c-7.188,7.494-14.817,17.173-9.964,25.578c5.289,9.16,18.801,6.203,27.082,4.171c10.514-2.579,24.704-7.615,42.176-14.967    c34.094-14.348,78.384-36.56,125.085-62.718l-4.725,61.419c-9.76-2.71-19.173-6.643-28.041-11.764    c-2.7-1.558-5.381-3.248-7.968-5.021c-3.651-2.503-8.642-1.571-11.144,2.081c-2.503,3.652-1.571,8.642,2.081,11.144    c2.924,2.004,5.958,3.916,9.014,5.68c10.958,6.327,22.656,11.06,34.807,14.13l-2.74,35.608    c-17.408-3.744-34.101-10.181-49.705-19.19c-10.721-6.19-20.785-13.545-29.911-21.861c-3.272-2.983-8.342-2.747-11.326,0.526    c-2.982,3.273-2.746,8.344,0.526,11.325c9.977,9.091,20.977,17.131,32.694,23.895c17.69,10.214,36.671,17.405,56.481,21.424    l-2.725,35.414c-25.077-4.573-49.069-13.401-71.395-26.291c-18.771-10.838-35.792-24.268-50.593-39.92    c-3.043-3.217-8.117-3.36-11.333-0.316c-3.217,3.042-3.358,8.116-0.316,11.333c15.868,16.779,34.112,31.175,54.225,42.788    c24.41,14.093,50.691,23.655,78.176,28.467l-0.924,12.01c-0.353,4.59,3.393,8.631,7.993,8.631h68.409    c4.599,0,8.346-4.042,7.993-8.631l-0.929-12.073c51.288-9.034,98.749-34.811,133.947-72.842c3.007-3.249,2.812-8.321-0.437-11.329    c-3.25-3.008-8.323-2.811-11.329,0.438c-32.477,35.089-76.154,59.005-123.417,67.676l-2.726-35.43    c34.51-7.012,66.113-23.359,91.613-47.492c3.216-3.043,3.356-8.117,0.312-11.333c-3.046-3.217-8.118-3.355-11.333-0.312    c-22.834,21.611-51.023,36.412-81.83,43.039l-2.737-35.582c17.278-4.355,33.283-11.896,47.601-22.451    c3.564-2.627,4.324-7.646,1.696-11.209c-2.627-3.564-7.646-4.323-11.209-1.696c-11.891,8.767-25.107,15.175-39.337,19.105    l-4.722-61.391c46.625,26.116,90.841,48.296,124.923,62.649c17.517,7.378,31.744,12.431,42.288,15.023    c8.296,2.039,21.835,5.016,27.133-4.159C482.548,375.602,474.942,365.939,467.773,358.459z M245.653,75.549    c3.733-32.971,7.767-48.191,10.347-55.048c2.585,6.869,6.628,22.133,10.367,55.228c3.798,33.631,6.262,77.157,7.017,123.551    c-11.266-3.46-23.504-3.461-34.77,0C239.371,152.806,241.844,109.198,245.653,75.549z M104.897,355.187    c-30.42,13.252-45.617,17.367-52.845,18.562c4.656-5.673,15.852-16.807,42.645-36.591c27.228-20.107,63.696-44.006,103.5-67.86    c2.7,11.738,8.884,22.155,17.411,30.098C174.968,321.986,135.952,341.658,104.897,355.187z M230.452,495.967l13.984-181.782    c7.62,1.511,15.51,1.511,23.129,0l13.982,181.782H230.452z M255.999,299.29c-23.871,0-43.29-19.42-43.29-43.29    s19.42-43.29,43.29-43.29s43.29,19.42,43.29,43.29S279.87,299.29,255.999,299.29z M406.935,355.113    c-31.032-13.529-69.975-33.17-110.544-55.719c8.528-7.943,14.711-18.359,17.411-30.097    c39.874,23.896,76.407,47.843,103.645,67.968c26.688,19.718,37.852,30.822,42.499,36.485    C452.705,372.553,437.466,368.424,406.935,355.113z" fill="#FFFFFF"/>
	</g>
</g>
<g>
</g>
<g>
</g>
<g>
</g>
<g>
</g>
<g>
</g>
<g>
</g>
<g>
</g>
<g>
</g>
<g>
</g>
<g>
</g>
<g>
</g>
<g>
</g>
<g>
</g>
<g>
</g>
<g>
</g>
</svg>
