<?xml version="1.0" encoding="utf-8"?>
<!-- Generator: Adobe Illustrator 16.0.0, SVG Export Plug-In . SVG Version: 6.00 Build 0)  -->
<!DOCTYPE svg PUBLIC "-//W3C//DTD SVG 1.1//EN" "http://www.w3.org/Graphics/SVG/1.1/DTD/svg11.dtd">
<svg version="1.1" id="Layer_1" xmlns="http://www.w3.org/2000/svg" xmlns:xlink="http://www.w3.org/1999/xlink" x="0px" y="0px"
	 width="128px" height="128px" viewBox="0 0 128 128" enable-background="new 0 0 128 128" xml:space="preserve">
<g>
	<path fill="#FFFFFF" d="M55.19,34.665c-10.563,0-19.139,8.559-19.139,19.122c0,9.521,6.969,17.411,16.076,18.876l3.245-12.103
		l18.031-0.943c0.586-1.838,0.912-3.799,0.912-5.83C74.315,43.224,65.754,34.665,55.19,34.665L55.19,34.665z M55.19,34.665"/>
	<path fill="#FFFFFF" d="M56.997,16.403c-4.246,3.836-8.288,7.789-6.145,14.203c1.406-0.259,2.859-0.395,4.338-0.395
		c0.855,0,1.688,0.043,2.516,0.133c0.061-0.167,0.109-0.334,0.15-0.499C59.056,25.216,52.695,22.579,56.997,16.403L56.997,16.403z
		 M38.053,20.508c-1.757,5.446-3.277,10.897,1.789,15.383c1.733-1.486,3.681-2.724,5.795-3.66c-0.032-0.177-0.072-0.353-0.115-0.514
		C44.244,27.108,37.419,28.008,38.053,20.508L38.053,20.508z M75.44,22.314c-5.594,1.2-11.063,2.602-12.418,9.221
		c2.189,0.771,4.22,1.867,6.06,3.211c0.136-0.115,0.277-0.242,0.398-0.363C72.832,30.971,68.63,25.513,75.44,22.314L75.44,22.314z
		 M23.7,33.537c1.2,5.596,2.617,11.065,9.237,12.418c0.772-2.186,1.851-4.22,3.196-6.058c-0.116-0.138-0.243-0.28-0.364-0.398
		C32.356,36.145,26.899,40.351,23.7,33.537L23.7,33.537z M80.292,34.997c-2.559,0.058-4.996,0.963-7.203,3.458
		c1.48,1.728,2.724,3.672,3.658,5.778c0.176-0.032,0.352-0.052,0.513-0.098c4.613-1.278,3.713-8.103,11.21-7.468
		C85.703,35.776,82.932,34.934,80.292,34.997L80.292,34.997z M81.518,48.872c-0.98,0.029-2.027,0.222-3.146,0.594
		c0.259,1.402,0.397,2.844,0.397,4.321c0,0.851-0.046,1.693-0.133,2.518c0.168,0.061,0.332,0.124,0.496,0.165
		c4.633,1.2,7.27-5.175,13.445-0.877C89.407,52.088,86.165,48.73,81.518,48.872L81.518,48.872z M29.974,50.975
		c-3.899,0.052-6.573,4.907-12.17,1.01c3.837,4.246,7.774,8.284,14.189,6.141c-0.259-1.405-0.396-2.855-0.396-4.338
		c0-0.854,0.044-1.685,0.13-2.515c-0.167-0.061-0.332-0.107-0.496-0.15C30.799,51.009,30.378,50.969,29.974,50.975L29.974,50.975z
		 M33.617,63.34c-0.176,0.035-0.352,0.072-0.513,0.119c-4.612,1.277-3.695,8.102-11.192,7.464
		c5.446,1.761,10.877,3.277,15.363-1.788C35.789,67.404,34.554,65.455,33.617,63.34L33.617,63.34z M41.281,72.846
		c-0.135,0.115-0.259,0.242-0.38,0.363c-3.352,3.413,0.836,8.855-5.977,12.054c5.593-1.199,11.062-2.601,12.417-9.221
		C45.158,75.271,43.119,74.187,41.281,72.846L41.281,72.846z M41.281,72.846"/>
	<path fill="#FFFFFF" d="M122.727,56.256L122,56.288l-66.677,3.479l-0.563,0.032l-0.149,0.562L42.06,107.252l-0.213,0.779
		l0.793,0.199l45.83,10.944l0.266,0.066L89,119.107c20.293-9.765,34.292-30.521,34.292-54.54c0-2.568-0.153-5.098-0.465-7.584
		L122.727,56.256z M121.287,57.926c0.245,2.184,0.415,4.391,0.415,6.641c0,23.301-13.528,43.426-33.149,52.983L43.8,106.854
		l12.187-45.532L121.287,57.926z M121.287,57.926"/>
	<path fill="#FFFFFF" d="M122.464,62.499l-15.268,0.43l0.513,0.098l-3.195,15.861l16.11,0.599c1.229-4.769,1.872-9.769,1.872-14.919
		c0-0.693-0.012-1.382-0.035-2.069H122.464z M106.65,62.945l-17.119,0.496l0.527,0.115l-3.276,14.672l16.655,0.628L106.65,62.945z
		 M89,63.459l-15.68,0.446l0.53,0.116l-3.213,13.609l15.068,0.563L89,63.459z M72.792,63.92l-15.184,0.433l-3.263,12.665
		l15.216,0.563L72.792,63.92z M53.734,79.37l-3.046,11.771l15.199,2.037l3.146-13.281L53.734,79.37z M70.092,79.933l-3.146,13.378
		l14.936,2.002l3.329-14.866L70.092,79.933z M86.269,80.478l-3.346,14.968l16.725,2.235l3.343-16.623L86.269,80.478z
		 M104.066,81.093l-3.378,16.721l10.713,1.439c3.785-5.29,6.725-11.232,8.628-17.615L104.066,81.093z M50.157,93.211l-2.896,11.208
		l15.248,3.099l2.899-12.271L50.157,93.211z M66.449,95.379l-2.914,12.353l14.884,3.031l2.997-13.379L66.449,95.379z M82.461,97.518
		l-3.015,13.458l16.358,3.329c0.188-0.124,0.378-0.239,0.563-0.363l2.851-14.189L82.461,97.518z M100.276,99.899l-2.666,13.165
		c4.659-3.352,8.815-7.347,12.335-11.873L100.276,99.899z M100.276,99.899"/>
	<path fill="#FFFFFF" d="M63.526,4.323C30.3,4.323,3.323,31.299,3.323,64.526c0,33.227,26.977,60.2,60.203,60.2
		c33.228,0,60.201-26.974,60.201-60.2C123.728,31.299,96.754,4.323,63.526,4.323L63.526,4.323z M63.526,8.453
		c30.995,0,56.097,25.076,56.097,56.073c0,30.995-25.102,56.097-56.097,56.097c-30.997,0-56.072-25.102-56.072-56.097
		C7.454,33.529,32.529,8.453,63.526,8.453L63.526,8.453z M63.526,8.453"/>
</g>
</svg>
