<?xml version="1.0" encoding="utf-8"?>
<!-- Generator: Adobe Illustrator 16.0.0, SVG Export Plug-In . SVG Version: 6.00 Build 0)  -->
<!DOCTYPE svg PUBLIC "-//W3C//DTD SVG 1.1//EN" "http://www.w3.org/Graphics/SVG/1.1/DTD/svg11.dtd">
<svg version="1.1" id="Layer_1" xmlns="http://www.w3.org/2000/svg" xmlns:xlink="http://www.w3.org/1999/xlink" x="0px" y="0px"
	 width="128px" height="128px" viewBox="0 0 128 128" enable-background="new 0 0 128 128" xml:space="preserve">
<g>
	<path fill="#FFFFFF" d="M27.432,16.604c-2.484,0-4.527,2.05-4.527,4.528v2h-0.858c-7.463,0-13.539,6.074-13.539,13.531v61.202
		c0,7.457,6.075,13.532,13.539,13.532h83.914c7.457,0,13.532-6.075,13.532-13.532V36.662c0-7.457-6.075-13.531-13.532-13.531h-0.859
		V21.73c0-2.477-2.049-4.531-4.526-4.531h-21.1c-2.479,0-4.528,2.054-4.528,4.531v1.401H53.054v-2c0-2.478-2.043-4.528-4.527-4.528
		H27.432z M27.432,19.985h21.094c0.666,0,1.145,0.485,1.145,1.146v2H26.286v-2C26.286,20.47,26.765,19.985,27.432,19.985
		L27.432,19.985z M79.475,20.585h21.1c0.66,0,1.139,0.479,1.139,1.145v1.401H78.328V21.73
		C78.328,21.064,78.808,20.585,79.475,20.585L79.475,20.585z M22.046,27.641h83.914c5.034,0,9.021,3.987,9.021,9.021v9.044H13.019
		v-9.044C13.019,31.628,17.005,27.641,22.046,27.641L22.046,27.641z M87.686,64.492h4.517v7.193h7.188v4.511h-7.188v7.193h-4.517
		v-7.193h-7.188v-4.511h7.188V64.492z M28.467,71.686h18.898v4.511H28.467V71.686z M28.467,71.686"/>
</g>
</svg>
