<?xml version="1.0" encoding="utf-8"?>
<!-- Generator: Adobe Illustrator 16.0.0, SVG Export Plug-In . SVG Version: 6.00 Build 0)  -->
<!DOCTYPE svg PUBLIC "-//W3C//DTD SVG 1.1//EN" "http://www.w3.org/Graphics/SVG/1.1/DTD/svg11.dtd">
<svg version="1.1" id="Layer_1" xmlns="http://www.w3.org/2000/svg" xmlns:xlink="http://www.w3.org/1999/xlink" x="0px" y="0px"
	 width="128px" height="128px" viewBox="416 216 128 128" enable-background="new 416 216 128 128" xml:space="preserve">
<g>
	<g>
		<path fill="#FFFFFF" d="M480,222.54c-11.137,0-21.938,3.19-31.24,9.227c-1.017,0.659-1.305,2.018-0.646,3.034
			c0.66,1.016,2.017,1.305,3.033,0.646c8.588-5.574,18.565-8.52,28.852-8.52c29.265,0,53.074,23.809,53.074,53.074
			c0,29.265-23.81,53.074-53.074,53.074c-29.265,0-53.074-23.81-53.074-53.074c0-14.923,6.338-29.243,17.388-39.286
			c0.896-0.815,0.962-2.202,0.147-3.098c-0.814-0.896-2.201-0.962-3.098-0.147C429.401,248.341,422.54,263.843,422.54,280
			c0,31.684,25.776,57.46,57.46,57.46c31.684,0,57.46-25.776,57.46-57.46C537.46,248.316,511.684,222.54,480,222.54z"/>
	</g>
</g>
<g>
	<g>
		<path fill="#FFFFFF" d="M519.036,253.936c-0.674-1.006-2.035-1.277-3.042-0.603c-1.008,0.673-1.277,2.035-0.604,3.041
			c4.681,6.999,7.156,15.168,7.156,23.625c0,23.46-19.087,42.547-42.547,42.547c-23.46,0-42.547-19.087-42.547-42.547
			c0-23.46,19.086-42.547,42.547-42.547c11.192,0,21.76,4.311,29.756,12.136c0.866,0.848,2.254,0.833,3.102-0.033
			s0.832-2.254-0.033-3.101c-8.821-8.634-20.479-13.388-32.824-13.388c-25.879,0-46.933,21.053-46.933,46.933
			c0,25.879,21.053,46.933,46.933,46.933c25.879,0,46.934-21.054,46.934-46.933C526.934,270.671,524.202,261.658,519.036,253.936z"
			/>
	</g>
</g>
<g>
	<g>
		<path fill="#FFFFFF" d="M480,246.518c-7.228,0-14.11,2.267-19.902,6.555c-0.974,0.721-1.178,2.094-0.458,3.068
			c0.721,0.974,2.095,1.178,3.067,0.458c5.032-3.725,11.012-5.694,17.293-5.694c16.044,0,29.096,13.052,29.096,29.095
			c0,13.381-9.055,24.989-22.016,28.229c-1.176,0.294-1.891,1.484-1.597,2.66c0.248,0.997,1.143,1.661,2.126,1.661
			c0.175,0,0.354-0.021,0.533-0.065c14.919-3.729,25.339-17.087,25.339-32.484C513.481,261.538,498.462,246.518,480,246.518z"/>
	</g>
</g>
<g>
	<g>
		<path fill="#FFFFFF" d="M461.595,302.535c-6.794-5.555-10.69-13.77-10.69-22.535c0-6.066,1.847-11.878,5.343-16.808
			c0.701-0.989,0.467-2.357-0.521-3.058c-0.988-0.702-2.357-0.468-3.057,0.52c-4.024,5.675-6.151,12.365-6.151,19.345
			c0,10.088,4.483,19.538,12.3,25.932c0.407,0.332,0.899,0.495,1.387,0.495c0.635,0,1.265-0.275,1.699-0.805
			C462.671,304.684,462.532,303.302,461.595,302.535z"/>
	</g>
</g>
<g>
	<g>
		<path fill="#FFFFFF" d="M499.007,277.807c-1.211,0-2.192,0.981-2.192,2.193c0,9.271-7.543,16.814-16.814,16.814
			c-9.272,0-16.814-7.543-16.814-16.814c0-9.272,7.542-16.814,16.814-16.814c1.212,0,2.193-0.981,2.193-2.193
			c0-1.211-0.981-2.193-2.193-2.193c-11.69,0-21.201,9.511-21.201,21.201c0,11.69,9.511,21.199,21.201,21.199
			c11.69,0,21.199-9.509,21.199-21.199C501.199,278.789,500.219,277.807,499.007,277.807z"/>
	</g>
</g>
<g>
	<g>
		<path fill="#FFFFFF" d="M480,271.082c-4.917,0-8.918,4.001-8.918,8.918c0,4.918,4.001,8.919,8.918,8.919
			c4.918,0,8.919-4.001,8.919-8.919C488.919,275.083,484.918,271.082,480,271.082z M480,284.532c-2.499,0-4.532-2.033-4.532-4.532
			s2.033-4.532,4.532-4.532s4.532,2.033,4.532,4.532S482.499,284.532,480,284.532z"/>
	</g>
</g>
</svg>
